<svg width="384" height="511" viewBox="0 0 384 511" fill="none" xmlns="http://www.w3.org/2000/svg">
<path d="M384 192C384 279.4 267 435 215.7 499.2C203.4 514.5 180.6 514.5 168.3 499.2C117 435 0 279.4 0 192C0 86 86 0 192 0C298 0 384 86 384 192Z" fill="#C488FF"/>
<path d="M185.737 80.2751L73.737 128.28C66.737 131.28 62.837 138.781 64.387 146.182C65.937 153.582 72.437 158.983 80.037 158.983V162.983C80.037 169.634 85.387 174.984 92.037 174.984H292.037C298.687 174.984 304.037 169.634 304.037 162.983V158.983C311.637 158.983 318.187 153.632 319.687 146.182C321.187 138.731 317.287 131.23 310.337 128.28L198.337 80.2751C194.337 78.575 189.737 78.575 185.737 80.2751ZM128.037 190.986H96.037V289.146C95.737 289.296 95.437 289.496 95.137 289.696L71.137 305.697C65.287 309.598 62.637 316.898 64.687 323.649C66.737 330.4 72.987 335 80.037 335H304.037C311.087 335 317.287 330.4 319.337 323.649C321.387 316.898 318.787 309.598 312.887 305.697L288.887 289.696C288.587 289.496 288.287 289.346 287.987 289.146V190.986H256.037V286.995H236.037V190.986H204.037V286.995H180.037V190.986H148.037V286.995H128.037V190.986ZM192.037 110.978C196.28 110.978 200.35 112.664 203.351 115.665C206.351 118.666 208.037 122.736 208.037 126.98C208.037 131.224 206.351 135.294 203.351 138.294C200.35 141.295 196.28 142.981 192.037 142.981C187.794 142.981 183.724 141.295 180.723 138.294C177.723 135.294 176.037 131.224 176.037 126.98C176.037 122.736 177.723 118.666 180.723 115.665C183.724 112.664 187.794 110.978 192.037 110.978Z" fill="#FEF9EF"/>
</svg>
