<svg width="384" height="511" viewBox="0 0 384 511" fill="none" xmlns="http://www.w3.org/2000/svg">
<path d="M384 192C384 279.4 267 435 215.7 499.2C203.4 514.5 180.6 514.5 168.3 499.2C117 435 0 279.4 0 192C0 86 86 0 192 0C298 0 384 86 384 192Z" fill="#FCD303"/>
<path d="M172.65 96.5492C175.7 90.6491 173.4 83.3991 167.55 80.3491C161.7 77.2991 154.4 79.5991 151.35 85.4491L104.8 174.999H62C53.15 174.999 46 182.149 46 190.999C46 199.85 53.15 207 62 207L87.95 310.75C91.5 325 104.3 335 119 335H261C275.7 335 288.5 325 292.05 310.75L318 207C326.85 207 334 199.85 334 190.999C334 182.149 326.85 174.999 318 174.999H275.2L228.65 85.4491C225.6 79.5991 218.35 77.2991 212.45 80.3491C206.55 83.3991 204.3 90.6491 207.35 96.5492L248.15 174.999H131.85L172.65 96.5492ZM142 231V279C142 283.4 138.4 287 134 287C129.6 287 126 283.4 126 279V231C126 226.6 129.6 223 134 223C138.4 223 142 226.6 142 231ZM190 223C194.4 223 198 226.6 198 231V279C198 283.4 194.4 287 190 287C185.6 287 182 283.4 182 279V231C182 226.6 185.6 223 190 223ZM254 231V279C254 283.4 250.4 287 246 287C241.6 287 238 283.4 238 279V231C238 226.6 241.6 223 246 223C250.4 223 254 226.6 254 231Z" fill="#FEF9EF"/>
</svg>
