<svg width="384" height="511" viewBox="0 0 384 511" fill="none" xmlns="http://www.w3.org/2000/svg">
<path d="M384 192C384 279.4 267 435 215.7 499.2C203.4 514.5 180.6 514.5 168.3 499.2C117 435 0 279.4 0 192C0 86 86 0 192 0C298 0 384 86 384 192Z" fill="#58CBC4"/>
<path d="M113.137 81.8006C116.664 74.5388 124.718 71.1872 131.914 73.9802L191.486 97.1367L251.057 73.9802C258.254 71.1872 266.308 74.5388 269.834 81.8006L307.388 159.446C321.114 187.782 312.297 221.552 289.04 238.971L304.005 282.745L323.544 275.127C331.455 272.08 340.224 276.397 343.084 284.827C345.943 293.257 341.892 302.6 333.981 305.647L300.097 318.8L266.212 332.003C258.301 335.101 249.532 330.734 246.673 322.304C243.813 313.874 247.864 304.53 255.775 301.483L275.315 293.866L260.398 250.092C232.09 252.733 205.02 232.826 198.444 201.747L191.486 168.892L184.528 201.747C177.951 232.877 150.882 252.733 122.573 250.092L107.657 293.866L127.196 301.483C135.107 304.53 139.206 313.874 136.299 322.304C133.391 330.734 124.67 335.101 116.759 332.003L49.0381 305.698C41.1269 302.6 37.0284 293.307 39.9355 284.878C42.8426 276.448 51.5639 272.08 59.475 275.178L79.0145 282.795L93.9312 239.021C70.6745 221.552 61.9055 187.782 75.6308 159.446L113.137 81.8006ZM134.106 109.426L121.144 136.239L163.654 152.743L169.897 123.34L134.106 109.426ZM248.913 109.426L213.122 123.34L219.365 152.743L261.876 136.239L248.913 109.426Z" fill="#FEF9EF"/>
</svg>
