<svg width="384" height="511" viewBox="0 0 384 511" fill="none" xmlns="http://www.w3.org/2000/svg">
<path d="M384 192C384 279.4 267 435 215.7 499.2C203.4 514.5 180.6 514.5 168.3 499.2C117 435 0 279.4 0 192C0 86 86 0 192 0C298 0 384 86 384 192Z" fill="#FFAAAA"/>
<path d="M64 107C64 98.15 71.15 91 80 91H304C312.85 91 320 98.15 320 107C320 115.85 312.85 123 304 123V315C312.85 315 320 322.15 320 331C320 339.85 312.85 347 304 347H216V323C216 309.75 205.25 299 192 299C178.75 299 168 309.75 168 323V347H80C71.15 347 64 339.85 64 331C64 322.15 71.15 315 80 315V123C71.15 123 64 115.85 64 107ZM112 147V163C112 167.4 115.6 171 120 171H136C140.4 171 144 167.4 144 163V147C144 142.6 140.4 139 136 139H120C115.6 139 112 142.6 112 147ZM184 139C179.6 139 176 142.6 176 147V163C176 167.4 179.6 171 184 171H200C204.4 171 208 167.4 208 163V147C208 142.6 204.4 139 200 139H184ZM240 147V163C240 167.4 243.6 171 248 171H264C268.4 171 272 167.4 272 163V147C272 142.6 268.4 139 264 139H248C243.6 139 240 142.6 240 147ZM120 187C115.6 187 112 190.6 112 195V211C112 215.4 115.6 219 120 219H136C140.4 219 144 215.4 144 211V195C144 190.6 140.4 187 136 187H120ZM176 195V211C176 215.4 179.6 219 184 219H200C204.4 219 208 215.4 208 211V195C208 190.6 204.4 187 200 187H184C179.6 187 176 190.6 176 195ZM248 187C243.6 187 240 190.6 240 195V211C240 215.4 243.6 219 248 219H264C268.4 219 272 215.4 272 211V195C272 190.6 268.4 187 264 187H248ZM228 283C234.65 283 240.15 277.55 238.5 271.1C233.2 250.35 214.4 235 192 235C169.6 235 150.75 250.35 145.5 271.1C143.85 277.5 149.4 283 156 283H228Z" fill="#FEF9EF"/>
</svg>
