<svg width="384" height="511" viewBox="0 0 384 511" fill="none" xmlns="http://www.w3.org/2000/svg">
<path d="M384 192C384 279.4 267 435 215.7 499.2C203.4 514.5 180.6 514.5 168.3 499.2C117 435 0 279.4 0 192C0 86 86 0 192 0C298 0 384 86 384 192Z" fill="#28991F"/>
<path d="M170.929 77.5C170.929 69.9413 174.276 62.6922 180.233 57.3475C186.191 52.0027 194.271 49 202.696 49C211.122 49 219.202 52.0027 225.16 57.3475C231.117 62.6922 234.464 69.9413 234.464 77.5C234.464 85.0587 231.117 92.3078 225.16 97.6525C219.202 102.997 211.122 106 202.696 106C194.271 106 186.191 102.997 180.233 97.6525C174.276 92.3078 170.929 85.0587 170.929 77.5ZM204.88 185.978L192.24 231.281L225.132 260.791C231.089 266.134 234.464 273.378 234.464 280.919V334C234.464 344.509 225 353 213.286 353C201.571 353 192.107 344.509 192.107 334V284.897L143.198 241.019C132.741 231.638 128.505 218.1 132.013 205.216L145.514 155.341C151.007 135.094 173.774 122.744 196.277 127.791C208.851 130.641 219.838 137.528 226.986 147.206L245.782 172.5H266.232V158.25C266.232 150.353 273.314 144 282.116 144C290.918 144 298 150.353 298 158.25V191.381C298 191.441 298 191.5 298 191.5V338.75C298 346.647 290.918 353 282.116 353C273.314 353 266.232 346.647 266.232 338.75V210.5H240.156C229.567 210.5 219.639 205.75 213.749 197.794L204.947 185.919L204.88 185.978ZM97.5316 329.191L121.49 247.312C123.475 249.806 125.726 252.181 128.174 254.378L155.905 279.256L138.433 338.809C135.454 348.963 123.872 355.019 112.555 352.347C101.238 349.675 94.4872 339.284 97.4654 329.131L97.5316 329.191ZM134.263 123.753L110.967 207.234C108.981 214.419 101.105 219.05 92.965 217.863L61.2633 213.113C51.9977 211.747 46.1074 203.434 48.5562 195.3L64.9695 141.031C71.2569 120.369 92.1708 106 116.063 106H118.843C129.167 106 136.778 114.728 134.263 123.694V123.753Z" fill="#FEF9EF"/>
</svg>
