<svg width="384" height="511" viewBox="0 0 384 511" fill="none" xmlns="http://www.w3.org/2000/svg">
<path d="M384 192C384 279.4 267 435 215.7 499.2C203.4 514.5 180.6 514.5 168.3 499.2C117 435 0 279.4 0 192C0 86 86 0 192 0C298 0 384 86 384 192Z" fill="#229FFE"/>
<path d="M269.542 128.231C284.454 119.622 317.081 116.22 325.147 130.191C333.444 144.562 313.954 170.717 299.042 179.326L248.202 208.679L244.922 304.195C244.741 309.621 241.525 314.725 236.511 317.62L212.007 331.767C207.385 334.436 201.677 332.303 200.591 327.501L182.407 246.666L137.584 272.544L132.023 306.412C131.637 308.764 130.097 310.931 127.917 312.189L109.604 322.762C106.203 324.726 102.048 323.772 100.273 320.698C99.9738 320.179 99.7614 319.61 99.5926 319.015L87.9526 267.135L48.8434 231.115C48.3694 230.697 48.0262 230.203 47.7266 229.684C45.9289 226.57 47.2469 222.51 50.6043 220.571L68.9171 209.998C71.0972 208.74 73.7432 208.489 75.9732 209.331L108.084 221.449L152.951 195.545L92.0372 139.38C88.3784 136.064 89.385 130.054 94.0068 127.385L118.511 113.238C123.525 110.343 129.576 110.149 134.343 112.666L218.702 157.583L269.542 128.231Z" fill="#FEF9EF"/>
</svg>
