<svg width="384" height="511" viewBox="0 0 384 511" fill="none" xmlns="http://www.w3.org/2000/svg">
<path d="M384 192C384 279.4 267 435 215.7 499.2C203.4 514.5 180.6 514.5 168.3 499.2C117 435 0 279.4 0 192C0 86 86 0 192 0C298 0 384 86 384 192Z" fill="#BEBFC1"/>
<path d="M292.429 79C282.643 79 214.143 98.1875 214.143 184.531V251.688C214.143 272.854 231.696 290.062 253.286 290.062H272.857V366.812C272.857 377.426 281.603 386 292.429 386C303.254 386 312 377.426 312 366.812V98.1875C312 87.5744 303.254 79 292.429 79ZM77.1429 88.5938C77.1429 83.677 73.4121 79.5996 68.3969 79.06C63.3817 78.5203 58.917 81.7582 57.8161 86.4951L39.2844 168.222C38.4281 171.999 38 175.837 38 179.674C38 207.196 59.4674 229.802 86.9286 232.26V366.812C86.9286 377.426 95.6746 386 106.5 386C117.325 386 126.071 377.426 126.071 366.812V232.26C153.533 229.802 175 207.196 175 179.674C175 175.837 174.572 171.999 173.716 168.222L155.184 86.4951C154.083 81.6982 149.496 78.5203 144.542 79.06C139.588 79.5996 135.857 83.677 135.857 88.5938V169.061C135.857 172.299 133.166 174.938 129.863 174.938C126.744 174.938 124.175 172.599 123.87 169.541L116.225 87.7543C115.796 82.7775 111.576 79 106.5 79C101.424 79 97.2036 82.7775 96.7754 87.7543L89.1915 169.541C88.8857 172.599 86.317 174.938 83.1978 174.938C79.8951 174.938 77.204 172.299 77.204 169.061V88.5938H77.1429ZM106.683 179.734H106.317L106.5 179.315L106.683 179.734Z" fill="#FEF9EF"/>
</svg>
