<svg width="384" height="511" viewBox="0 0 384 511" fill="none" xmlns="http://www.w3.org/2000/svg">
<path d="M384 192C384 279.4 267 435 215.7 499.2C203.4 514.5 180.6 514.5 168.3 499.2C117 435 0 279.4 0 192C0 86 86 0 192 0C298 0 384 86 384 192Z" fill="#76B2EA"/>
<path d="M220.334 214.237L191.641 203.227L157.17 302.823H70.2778C61.8273 302.823 55 310.013 55 318.912C55 327.811 61.8273 335 70.2778 335H314.722C323.173 335 330 327.811 330 318.912C330 310.013 323.173 302.823 314.722 302.823H189.683L220.286 214.237H220.334ZM278.151 214.136L276.576 218.712L308.898 231.079C317.539 234.398 327.04 228.968 327.804 219.315C330.907 179.848 316.393 141.136 289.227 114.489C290.182 118.511 290.755 122.684 290.851 126.958L290.946 129.974C291.806 158.632 287.461 187.188 278.151 214.136ZM275.573 127.41C275.048 110.115 264.831 94.8314 249.601 88.4967C249.171 88.2955 248.694 88.1447 248.264 87.9436C232.509 82.0613 214.939 86.737 203.815 99.9093L201.905 102.172C185.052 121.98 171.97 145.057 163.281 170.095L161.706 174.67L262.205 213.181L263.78 208.606C272.422 183.569 276.48 157.073 275.668 130.427L275.573 127.41ZM106.181 134.348C100.881 142.242 104.844 152.85 113.485 156.168L147.383 169.139L148.958 164.564C158.268 137.616 172.4 112.78 190.543 91.4127L192.452 89.1502C195.412 85.6812 198.707 82.6144 202.24 80C164.236 81.2569 128.381 101.216 106.181 134.298V134.348Z" fill="#FEF9EF"/>
</svg>
